<?xml version="1.0" standalone="no"?>
<!DOCTYPE svg PUBLIC "-//W3C//DTD SVG 20010904//EN"
 "http://www.w3.org/TR/2001/REC-SVG-20010904/DTD/svg10.dtd">
<svg version="1.0" xmlns="http://www.w3.org/2000/svg"
 width="1020.000000pt" height="1020.000000pt" viewBox="0 0 1020.000000 1020.000000"
 preserveAspectRatio="xMidYMid meet">
<metadata>
Created by potrace 1.14, written by Peter Selinger 2001-2017
</metadata>
<g transform="translate(0.000000,1020.000000) scale(0.100000,-0.100000)"
fill="#000000" stroke="none">
<path d="M680 8752 c0 -1366 1 -1448 18 -1463 9 -9 30 -31 46 -50 52 -60 160
-183 186 -210 14 -15 41 -46 60 -69 19 -23 51 -59 71 -80 19 -21 51 -57 70
-80 19 -23 45 -54 59 -69 37 -39 103 -115 152 -173 73 -86 117 -128 123 -117
4 5 11 7 16 4 12 -8 89 -12 89 -5 0 4 17 5 38 2 20 -2 43 -3 50 -3 16 1 25 1
107 1 39 0 77 1 85 1 8 0 20 0 25 -1 36 -8 59 27 44 67 -5 13 -4 25 1 28 7 4
6 13 0 25 -6 12 -7 21 0 25 6 4 6 15 0 30 -6 16 -6 25 0 25 6 0 6 9 1 23 -5
12 -5 32 0 45 5 13 5 22 -1 22 -6 0 -6 9 0 25 6 15 6 26 0 30 -7 4 -6 13 0 25
6 12 7 21 0 25 -6 4 -6 15 0 30 6 16 6 25 0 25 -6 0 -6 9 0 25 6 15 6 26 0 30
-6 4 -7 13 -1 23 8 17 7 49 -3 59 -3 3 -1 14 4 24 7 12 7 20 0 24 -7 4 -7 12
0 25 6 11 6 21 1 24 -5 3 -5 21 -1 41 4 19 4 35 -1 35 -5 0 -4 11 1 25 6 15 6
25 0 25 -5 0 -5 12 0 30 5 18 5 30 0 30 -6 0 -6 10 0 25 6 15 6 26 -1 30 -6 4
-6 13 0 23 5 9 5 26 0 39 -5 14 -5 23 1 23 6 0 6 9 0 25 -6 15 -6 25 0 25 5 0
7 12 4 27 -6 34 6 41 64 34 26 -3 67 -4 92 -1 25 3 69 3 98 -1 29 -3 57 -2 62
1 6 4 32 4 58 1 26 -4 63 -4 82 -1 19 3 78 3 131 0 53 -3 114 -3 135 0 22 3
50 3 63 0 13 -3 51 -3 85 0 33 3 89 4 123 2 l62 -3 1 -321 c0 -176 3 -324 5
-329 3 -4 2 -10 -2 -12 -5 -3 -6 -57 -3 -121 3 -64 3 -116 0 -116 -3 0 -4 -26
-2 -57 1 -32 2 -79 2 -105 -1 -53 17 -70 60 -58 15 4 33 4 41 0 7 -5 20 -5 29
0 9 5 22 5 29 1 7 -5 30 -5 51 -1 21 4 44 4 51 -1 7 -4 20 -4 29 1 9 5 22 5
29 1 7 -5 30 -5 51 -1 21 4 44 4 51 -1 7 -4 20 -4 29 1 9 5 22 5 29 1 7 -5 30
-5 51 -1 21 4 44 4 51 -1 7 -4 20 -4 29 1 9 5 22 5 29 1 7 -5 30 -5 51 -1 21
4 44 4 51 -1 7 -4 20 -4 29 1 9 5 22 5 28 1 7 -4 35 -4 62 -1 28 4 52 4 55 1
8 -8 55 -7 55 1 0 4 10 4 23 0 20 -6 46 -7 72 -2 18 3 80 1 102 -4 13 -3 25
-1 28 4 3 5 15 6 28 1 12 -5 31 -5 42 -1 11 4 23 6 28 3 4 -2 7 26 7 64 3
2390 0 2826 -17 2843 -10 9 -52 54 -93 99 -41 46 -91 99 -110 120 -70 73 -187
200 -270 290 -47 51 -105 114 -128 140 -24 25 -75 81 -114 124 l-71 77 -249 0
-248 0 0 -371 c1 -204 0 -373 -2 -374 -2 -2 -1 -55 2 -119 3 -64 3 -116 0
-116 -3 0 -4 -26 -3 -57 5 -103 2 -406 -3 -415 -3 -4 -241 -8 -529 -8 -548 0
-545 0 -524 42 6 10 5 19 -1 23 -6 4 -7 13 -1 24 6 10 6 23 1 31 -5 8 -6 19
-2 25 9 14 9 36 0 61 -4 12 -4 25 -1 28 9 9 9 66 1 66 -4 0 -3 11 2 25 6 16 6
25 0 25 -6 0 -6 9 0 25 6 15 6 27 0 30 -6 3 -6 15 0 30 6 15 6 27 -1 30 -6 4
-6 13 0 23 5 9 5 26 0 39 -5 14 -5 23 1 23 6 0 6 9 0 25 -6 15 -6 27 0 30 6 3
6 15 0 30 -6 15 -6 25 0 25 5 0 5 12 0 30 -5 17 -6 30 -2 30 4 0 7 14 7 30 0
17 -3 30 -7 30 -4 0 -3 11 2 25 6 16 6 25 0 25 -6 0 -6 9 0 25 6 15 6 25 0 25
-5 0 -5 12 0 30 5 18 5 30 0 30 -6 0 -6 10 0 25 6 16 6 25 0 25 -6 0 -6 9 0
25 6 15 6 27 0 30 -6 3 -6 15 0 30 6 15 6 27 -1 30 -6 4 -6 13 0 23 5 9 5 26
0 39 -5 13 -4 25 1 28 7 4 6 13 0 25 -6 12 -7 21 0 25 5 3 6 15 1 28 -5 12 -5
34 0 49 4 16 4 28 -1 28 -5 0 -5 13 0 30 5 16 5 32 0 35 -4 3 -6 14 -3 25 5
20 0 20 -616 20 l-621 0 0 -1448z"/>
<path d="M3958 6205 c-2 -3 1 -37 8 -77 7 -40 16 -95 20 -123 7 -59 11 -81 18
-115 3 -14 8 -43 11 -65 3 -22 7 -51 10 -65 3 -14 7 -45 10 -70 3 -25 9 -58
12 -75 3 -16 7 -41 9 -55 2 -14 5 -40 8 -58 3 -18 8 -51 11 -73 4 -23 10 -52
15 -64 5 -13 123 -137 261 -276 l253 -251 -52 -50 c-29 -27 -52 -52 -53 -56 0
-4 -27 -29 -59 -57 -32 -27 -59 -53 -59 -57 -1 -10 -104 -108 -113 -108 -4 0
-8 -6 -8 -12 -1 -7 -19 -26 -40 -43 -21 -16 -39 -33 -40 -38 0 -4 -18 -24 -41
-44 -22 -20 -44 -44 -49 -53 -8 -15 -22 -104 -23 -147 0 -7 -3 -13 -6 -13 -3
0 -6 -10 -7 -22 -1 -32 -15 -141 -19 -148 -2 -3 -6 -27 -9 -55 -3 -27 -8 -63
-12 -80 -3 -16 -7 -41 -9 -55 -2 -14 -4 -25 -5 -25 -1 0 -3 -13 -5 -30 -5 -48
-14 -108 -20 -135 -3 -14 -8 -50 -11 -81 l-6 -56 74 13 c40 7 93 15 118 19 25
3 68 10 95 15 50 9 76 13 170 26 28 3 59 8 70 11 11 3 34 6 50 8 27 3 49 6
125 20 32 5 98 16 128 19 14 2 118 98 279 259 l256 256 257 -257 c142 -141
262 -257 266 -257 10 -1 162 -24 195 -30 12 -2 47 -7 78 -11 31 -3 58 -8 61
-9 3 -2 26 -6 50 -10 25 -3 101 -15 170 -26 69 -11 144 -22 166 -25 56 -6 82
-12 93 -18 10 -7 34 18 25 26 -6 7 -12 38 -18 98 -2 25 -7 56 -10 70 -6 26
-15 85 -22 135 -2 17 -6 41 -8 55 -3 13 -8 42 -11 65 -10 68 -15 99 -21 129
-4 16 -8 40 -9 55 -2 14 -6 42 -9 61 -13 87 -20 136 -18 142 1 4 -115 124
-258 267 l-259 260 257 258 c168 169 257 265 257 278 -1 11 3 38 8 59 4 22 10
58 12 80 8 68 16 120 22 136 3 8 6 31 8 50 1 19 8 63 14 98 7 34 14 79 17 100
2 20 6 48 9 62 3 14 7 43 10 65 3 22 10 64 15 94 12 65 13 100 2 86 -4 -5 -20
-10 -37 -11 -29 -1 -44 -3 -170 -25 -62 -10 -87 -14 -158 -24 -23 -3 -49 -8
-57 -10 -8 -2 -35 -7 -60 -10 -25 -2 -55 -7 -66 -9 -24 -5 -64 -11 -139 -22
-27 -3 -59 -9 -70 -11 -11 -2 -33 -6 -49 -8 -22 -2 -86 -61 -287 -261 l-258
-257 -258 257 c-141 142 -266 260 -278 261 -11 2 -37 6 -59 10 -21 4 -48 8
-60 9 -68 9 -138 20 -186 30 -14 3 -46 7 -72 10 -26 3 -51 7 -55 9 -5 3 -30 8
-58 11 -27 3 -61 8 -75 10 -56 10 -167 26 -202 30 -21 3 -41 7 -46 10 -5 3
-11 3 -14 1z"/>
<path d="M6334 3260 c-3 -2 -20 -3 -39 -2 -32 2 -35 0 -36 -25 -1 -15 -1 -32
0 -38 2 -5 2 -70 1 -145 -1 -74 -1 -142 -1 -150 0 -8 0 -169 0 -357 l1 -342
37 -1 c83 -2 182 -2 213 0 14 1 30 2 35 1 43 -1 422 -2 430 -1 6 1 50 2 99 1
81 -1 88 -2 83 -20 -2 -10 -1 -24 3 -31 4 -7 4 -25 0 -40 -4 -15 -4 -33 0 -40
5 -7 5 -23 0 -34 -4 -12 -4 -30 0 -41 4 -11 3 -28 -2 -37 -6 -12 -5 -18 2 -18
7 0 8 -6 2 -17 -5 -10 -6 -29 -2 -43 4 -14 3 -33 -2 -42 -5 -10 -4 -19 2 -23
6 -4 7 -11 4 -17 -4 -6 -6 -32 -5 -57 1 -25 1 -62 0 -81 -1 -19 -1 -42 0 -50
1 -8 1 -24 1 -35 -1 -11 -1 -27 0 -35 0 -8 0 -28 -1 -45 -2 -38 -1 -63 4 -95
2 -14 0 -33 -5 -42 -5 -10 -4 -19 2 -23 6 -4 7 -11 4 -17 -8 -12 -8 -148 0
-155 2 -2 1 -17 -4 -32 -4 -15 -4 -35 1 -44 6 -9 6 -18 0 -21 -5 -3 -7 -15 -4
-26 5 -19 0 -20 -188 -21 -107 -1 -198 -1 -203 0 -6 1 -118 2 -250 1 -188 0
-243 -3 -251 -14 -6 -7 -8 -53 -5 -112 3 -54 3 -152 0 -217 -3 -65 -2 -125 3
-132 4 -8 3 -16 -3 -20 -7 -4 -7 -12 0 -25 7 -13 7 -21 0 -25 -6 -4 -8 -10 -5
-15 5 -8 9 -403 5 -425 -7 -36 -26 -35 1131 -35 891 0 1133 3 1143 13 7 6 62
57 121 112 60 55 123 114 140 130 18 17 79 73 135 125 57 52 117 109 135 125
18 17 60 55 95 85 35 30 76 66 91 80 29 27 123 110 167 149 15 13 44 39 65 58
l37 35 0 669 0 669 -147 151 c-82 84 -307 311 -500 505 l-352 354 -288 1
c-159 1 -292 0 -298 -1 -5 -1 -17 -2 -25 -2 -8 0 -118 1 -245 1 -126 0 -237 0
-245 0 -25 0 -504 0 -515 -1 -19 0 -309 1 -365 2 -30 1 -88 2 -128 3 -41 1
-76 0 -78 -3z"/>
</g>
</svg>
