<svg width="442" height="510" viewBox="0 0 442 510" fill="none" xmlns="http://www.w3.org/2000/svg">
<path d="M0 0H62V188H38.3559L19.4407 166.5L0 144.5V0Z" fill="#F7941E"/>
<path d="M180 188H115V0H139.788L159.619 21.5L180 43.5V188Z" fill="#F7941E"/>
<rect x="50" y="132" width="59" height="82" transform="rotate(-90 50 132)" fill="#F7941E"/>
<rect x="195.772" y="268.443" width="50.8016" height="50.8016" transform="rotate(-45 195.772 268.443)" fill="#F7941E"/>
<rect x="254.932" y="281.131" width="50.8016" height="55.0201" transform="rotate(-135 254.932 281.131)" fill="#F7941E"/>
<rect x="206.255" y="329.867" width="50.8016" height="58.8127" transform="rotate(-135 206.255 329.867)" fill="#F7941E"/>
<rect x="245.184" y="245.292" width="50.8016" height="55.0954" transform="rotate(135 245.184 245.292)" fill="#F7941E"/>
<rect x="293.867" y="293.915" width="50.8016" height="51.7103" transform="rotate(135 293.867 293.915)" fill="#F7941E"/>
<path d="M163.73 199.73L206.291 206.386L170.386 242.291L163.73 199.73Z" fill="#F7941E"/>
<path d="M163.73 336.27L206.291 329.615L170.386 293.71L163.73 336.27Z" fill="#F7941E"/>
<path d="M300.184 199.778L257.684 206.494L293.468 242.278L300.184 199.778Z" fill="#F7941E"/>
<path d="M300.27 336.27L257.709 329.615L293.614 293.71L300.27 336.27Z" fill="#F7941E"/>
<path d="M324 347H392L417.5 372.5L442 397.5V464.5L419.5 484.5L392 510H324V347Z" fill="#F7941E"/>
<rect x="279" y="510" width="51" height="55" transform="rotate(-90 279 510)" fill="#F7941E"/>
<rect x="279" y="400" width="53" height="55" transform="rotate(-90 279 400)" fill="#F7941E"/>
</svg>
